<svg width="24" height="24" viewBox="0 0 24 24" fill="none" xmlns="http://www.w3.org/2000/svg">
<rect x="1.82507" y="1" width="21.1749" height="22" rx="10.5874" fill="black"/>
<path d="M13.4977 15.7848C13.3542 15.6413 13.2853 15.4679 13.2911 15.2646C13.2973 15.0613 13.3722 14.8879 13.5157 14.7444L15.5426 12.7175H7.54256C7.33927 12.7175 7.16875 12.6486 7.03099 12.5109C6.89371 12.3736 6.82507 12.2033 6.82507 12C6.82507 11.7967 6.89371 11.6262 7.03099 11.4884C7.16875 11.3512 7.33927 11.2825 7.54256 11.2825H15.5426L13.4977 9.23767C13.3542 9.09417 13.2825 8.92365 13.2825 8.7261C13.2825 8.52903 13.3542 8.35874 13.4977 8.21525C13.6412 8.07175 13.8117 8 14.0093 8C14.2064 8 14.3766 8.07175 14.5201 8.21525L17.8027 11.4978C17.8744 11.5695 17.9253 11.6472 17.9555 11.7309C17.9851 11.8146 18 11.9043 18 12C18 12.0957 17.9851 12.1854 17.9555 12.2691C17.9253 12.3528 17.8744 12.4305 17.8027 12.5022L14.5022 15.8027C14.3707 15.9342 14.2064 16 14.0093 16C13.8117 16 13.6412 15.9283 13.4977 15.7848Z" fill="white"/>
<rect x="1.82507" y="1" width="21.1749" height="22" rx="10.5874" stroke="white" stroke-width="2"/>
</svg>
