<svg width="77" height="40" viewBox="0 0 77 40" fill="none" xmlns="http://www.w3.org/2000/svg">
<path d="M22.954 29.1651C22.8906 29.2145 22.799 29.2356 22.6722 29.2356C22.4468 29.2356 22.2214 29.1369 21.9889 28.9465L21.841 29.2286C22.0664 29.4401 22.3412 29.553 22.6652 29.553C22.799 29.553 22.9188 29.5318 23.0315 29.4966C23.1442 29.4542 23.2428 29.3908 23.3203 29.2991C23.3908 29.2145 23.426 29.1087 23.426 28.9818C23.419 28.8196 23.3696 28.7067 23.2922 28.6221C23.1865 28.5234 23.0174 28.4458 22.785 28.3894C22.6229 28.3471 22.5102 28.3048 22.4468 28.2554C22.3764 28.206 22.3412 28.1426 22.3412 28.065C22.3412 27.9874 22.3693 27.9381 22.4327 27.9028C22.4961 27.8675 22.5736 27.8534 22.6652 27.8534C22.8413 27.8534 23.0386 27.9169 23.2569 28.0509L23.3978 27.7406C23.2006 27.5996 22.9611 27.5291 22.6934 27.5291C22.482 27.5291 22.313 27.5784 22.1721 27.6701C22.0312 27.7688 21.9608 27.9028 21.9608 28.0791C21.9608 28.1849 21.9819 28.2766 22.0312 28.3541C22.0664 28.4035 22.1298 28.4599 22.2214 28.5163C22.2918 28.5586 22.4186 28.601 22.5948 28.6503C22.6652 28.6715 22.7216 28.6856 22.7709 28.6997C22.8202 28.7138 22.8624 28.7349 22.9118 28.7632C23.0033 28.8125 23.0456 28.883 23.0456 28.9747C23.0456 29.0593 23.0174 29.1158 22.954 29.1651Z" fill="black"/>
<path d="M26.5748 29.553V27.8394H27.2159V27.5361H25.6027V27.8394H26.2367V29.553H26.5748Z" fill="black"/>
<path d="M29.8575 27.5361H29.5194V29.553H29.8575V27.5361Z" fill="black"/>
<path d="M33.3023 29.2356C33.1895 29.2356 33.0909 29.2145 32.9994 29.1792C32.9078 29.144 32.8373 29.0875 32.7739 29.0241C32.7105 28.9606 32.6683 28.883 32.633 28.7984C32.5978 28.7138 32.5837 28.6292 32.5837 28.5375C32.5837 28.333 32.6542 28.1637 32.788 28.0368C32.9219 27.9099 33.098 27.8393 33.3023 27.8393C33.5065 27.8393 33.6897 27.931 33.8658 28.1073L34.0631 27.8675C33.8376 27.6419 33.584 27.5291 33.2952 27.5291C32.9923 27.5291 32.7458 27.6278 32.5415 27.8182C32.3372 28.0086 32.2386 28.2484 32.2386 28.5304C32.2386 28.8125 32.3372 29.0523 32.5415 29.2497C32.7458 29.4472 32.9923 29.5459 33.2882 29.5459C33.577 29.5459 33.8376 29.4331 34.0701 29.2074L33.8658 28.9959C33.6897 29.1581 33.5065 29.2356 33.3023 29.2356Z" fill="black"/>
<path d="M38.1277 27.5361H37.7332L36.7681 28.5939V27.5361H36.43V29.553H36.7681V29.0312L37.1062 28.6574L37.7754 29.553H38.184L37.3528 28.3965L38.1277 27.5361Z" fill="black"/>
<path d="M41.2624 28.3894C41.1004 28.3471 40.9877 28.3048 40.9243 28.2554C40.8539 28.206 40.8186 28.1426 40.8186 28.065C40.8186 27.9874 40.8468 27.9381 40.9102 27.9028C40.9736 27.8675 41.0511 27.8534 41.1427 27.8534C41.3188 27.8534 41.516 27.9169 41.7344 28.0509L41.8753 27.7406C41.6781 27.5996 41.4385 27.5291 41.1709 27.5291C40.9595 27.5291 40.7905 27.5784 40.6496 27.6701C40.5087 27.7688 40.4382 27.9028 40.4382 28.0791C40.4382 28.1849 40.4594 28.2766 40.5087 28.3541C40.5439 28.4035 40.6073 28.4599 40.6989 28.5163C40.7693 28.5586 40.8961 28.601 41.0722 28.6503C41.1427 28.6715 41.199 28.6856 41.2483 28.6997C41.2977 28.7138 41.3399 28.7349 41.3892 28.7632C41.4808 28.8125 41.5231 28.883 41.5231 28.9747C41.5231 29.0452 41.4949 29.1016 41.4315 29.151C41.3681 29.2004 41.2765 29.2215 41.1497 29.2215C40.9243 29.2215 40.6989 29.1228 40.4664 28.9324L40.3185 29.2145C40.5439 29.426 40.8186 29.5389 41.1427 29.5389C41.2765 29.5389 41.3963 29.5177 41.509 29.4825C41.6217 29.4401 41.7203 29.3767 41.7978 29.285C41.8683 29.2004 41.9035 29.0946 41.9035 28.9677C41.8964 28.8055 41.8471 28.6926 41.7696 28.608C41.664 28.5304 41.4949 28.4458 41.2624 28.3894Z" fill="black"/>
<path d="M18.8542 12.7904C18.6922 12.9244 18.5301 13.1007 18.5301 13.3052C18.5301 13.3757 18.5442 13.4674 18.6147 13.5379C18.6851 13.6225 18.7908 13.6719 18.9035 13.6719C19.1219 13.6719 19.3684 13.4956 19.4318 13.3334C19.5023 13.1148 19.6643 12.9949 19.8122 12.8327C20.6294 12.0429 21.3902 11.1966 21.9467 10.2023C22.1791 9.77918 22.3552 9.31374 22.3552 8.86947C22.3552 8.32646 22.0805 7.84693 21.3197 7.65652C21.0873 7.60011 20.8196 7.5719 20.5448 7.5719C19.7277 7.5719 18.7908 7.80462 18.1216 7.99502C15.7405 8.66496 13.6343 9.8497 11.6759 11.3306C11.1194 11.7537 10.6122 12.2262 10.1543 12.7481C9.64009 13.3334 9.37945 13.8905 9.37945 14.4264C9.37945 15.0682 9.74576 15.6676 10.5066 16.2247C12.4367 17.6563 15.5151 17.8326 17.2692 19.0455C17.3115 19.0878 17.3537 19.1019 17.3537 19.1301C17.3537 19.1442 17.3396 19.1583 17.2974 19.1724C14.5641 20.5617 9.1329 24.0595 7.93535 26.838C7.81559 27.0989 7.74515 27.4233 7.74515 27.7265C7.74515 28.4106 8.08328 29.1017 8.87225 29.3203C9.25265 29.4261 9.63305 29.4684 10.0275 29.4684C10.57 29.4684 11.1053 29.3837 11.6618 29.2357C14.3528 28.5022 17.0931 26.1962 18.4526 24.3627C19.3402 23.1498 19.6502 22.2119 19.6502 21.4643C19.6502 20.2091 18.7767 19.518 18.2624 19.0808C18.2484 19.0667 18.2484 19.0667 18.2484 19.0526C18.2484 19.0385 18.2624 19.0103 18.3047 18.9961C18.988 18.7211 19.8404 18.4672 20.6435 18.4672C20.9182 18.4672 21.2 18.4955 21.4606 18.573C21.9608 18.7211 21.8692 19.0385 22.0453 19.0385H22.0594C21.9255 18.5237 21.6085 18.4249 21.2141 18.3544C20.9534 18.3121 20.6998 18.298 20.4673 18.298C19.6643 18.298 18.9598 18.5307 18.1427 18.8269C18.0863 18.841 18.037 18.8551 17.9807 18.8551C17.9243 18.8551 17.8609 18.841 17.8046 18.7987C15.8321 17.5575 13.1412 17.1908 11.3448 16.1542C10.6122 15.7452 9.92891 15.174 9.92891 14.4264C9.92891 14.1796 9.99936 13.9117 10.1755 13.6225C10.4079 13.2558 10.6897 12.9526 11.0067 12.6705C13.2116 10.6677 15.7546 9.29259 18.6288 8.51687C18.9387 8.43224 19.784 8.22774 20.4814 8.22774C21.0943 8.22774 21.5944 8.37583 21.5944 8.88357V8.95409C21.4888 10.2023 19.7065 12.064 18.8542 12.7904ZM17.7764 19.243C17.8609 19.243 17.9525 19.2853 18.0229 19.3276C19.0162 20.0328 19.4107 20.7733 19.4107 21.549C19.4107 22.3952 18.9458 23.2908 18.2413 24.2428C16.6493 26.3655 14.1837 28.2907 11.6407 29.0664C11.218 29.1863 10.6474 29.2709 10.0909 29.2709C9.72462 29.2709 9.35831 29.2427 9.05541 29.151C8.32279 28.9747 8.03397 28.4035 8.03397 27.7759C8.03397 27.3951 8.13964 27.0002 8.32279 26.6476C9.60487 24.2922 15.0854 20.6534 17.6284 19.2782C17.6778 19.2571 17.7341 19.243 17.7764 19.243Z" fill="black"/>
<path d="M76.5478 20.4841C76.3436 20.1174 75.5828 19.8706 75.2165 19.7789C74.2091 19.518 73.3638 19.4404 72.3212 19.3699C71.0391 19.2853 69.8204 19.25 68.6722 19.25C59.1059 19.25 53.3929 21.824 44.6296 22.2894C44.5099 22.2894 44.4394 22.233 44.4394 22.1414C44.4394 22.0215 44.524 21.8663 44.686 21.6618C45.4327 20.7874 48.335 18.2275 49.4057 17.9172C49.4198 17.9172 49.448 17.9031 49.4621 17.9031C49.6382 17.9031 49.7509 18.1358 49.9623 18.1358C50.0045 18.1358 50.0327 18.1358 50.082 18.1217C50.2159 18.0794 50.2722 17.9736 50.2722 17.8608C50.2722 17.6845 50.1384 17.4941 49.9059 17.4659C49.8495 17.4518 49.7861 17.4518 49.7298 17.4518C48.2223 17.4518 45.5947 20.2303 44.8339 21.0342C45.4327 19.4122 48.342 13.9258 49.2437 12.6564C49.3283 12.5365 49.6382 12.4096 49.758 12.3179C50.0468 12.0993 50.1102 12.0429 50.2511 11.7044C50.2793 11.6339 50.2933 11.5563 50.2933 11.4858C50.2933 11.2813 50.1454 11.1332 49.9411 11.1332C49.7932 11.1332 49.6171 11.2037 49.441 11.3659C48.3139 12.6987 45.9822 16.9158 44.4676 20.3784C44.4042 20.4066 44.3479 20.4418 44.2845 20.4771C43.1433 21.1188 38.98 25.5686 37.2753 25.5686C37.2048 25.5686 37.1274 25.5545 37.071 25.5404C36.7188 25.4558 36.5568 25.2019 36.5286 24.8846V24.8C36.5286 23.5447 38.3108 21.6266 38.3953 21.1611C38.4235 21.0553 38.4235 20.9707 38.4235 20.8861C38.4235 20.329 37.9234 20.1527 37.4162 19.9764C37.5641 19.8142 37.6064 19.6661 37.6064 19.5392C37.6064 19.2641 37.3598 19.0878 37.1062 19.0878C36.9865 19.0878 36.8738 19.1302 36.7822 19.2218C36.5356 19.511 36.4018 19.8495 36.4018 20.1104C36.4018 20.2585 36.444 20.3713 36.5215 20.4489C36.5568 20.47 36.599 20.4912 36.6413 20.5123C35.9368 20.8226 34.9577 21.1047 34.0842 21.1047C33.6897 21.1047 33.3234 21.0483 33.0064 20.9143C33.0486 20.738 33.1261 20.4348 33.1543 20.3008C33.1684 20.2162 33.1825 20.1245 33.1825 20.0399C33.1825 19.511 32.8444 19.3065 32.4992 19.3065C32.2667 19.3065 32.0202 19.3911 31.844 19.5392C31.5904 19.7366 31.3509 20.0117 31.1396 20.329C31.1255 20.329 31.1114 20.329 31.0973 20.329C31.0269 20.329 30.9212 20.3431 30.7874 20.3572C28.6811 20.6675 28.0682 20.8085 27.0045 21.1752C27.3568 20.6957 27.6315 20.0328 27.6315 19.5815C27.6315 19.2571 27.4836 19.0385 27.1313 19.0385C27.0609 19.0385 26.9834 19.0526 26.8989 19.0667C26.3846 19.1866 25.5957 19.8001 25.2223 20.1315C23.8486 21.3304 22.799 22.5997 21.7001 24.0525C21.686 24.0242 21.6719 24.0242 21.6578 23.996C21.6578 23.9678 21.6719 23.9255 21.686 23.8903C22.5947 22.226 23.4964 20.5406 24.6376 19.0032C24.7081 18.9186 24.7715 18.8269 24.8137 18.7282C24.8278 18.7 24.8278 18.6718 24.8278 18.6224C24.8278 18.4743 24.7222 18.3756 24.5672 18.3756H24.5249C24.1727 18.4179 23.7641 18.8763 23.5739 19.1231C23.1794 19.652 22.7849 20.188 22.4468 20.7451C20.5166 23.9608 19.0162 27.381 17.6284 30.8647C17.6003 30.9211 17.5721 30.9987 17.5721 31.0833V31.1115C17.6003 31.3301 17.6918 31.3865 17.7764 31.3865C17.882 31.3865 17.9666 31.316 17.9807 31.3019C18.3188 30.8647 18.3188 30.5121 18.4456 30.2371C18.8542 29.3767 19.2346 28.5093 19.6995 27.6772C21.0168 25.3077 22.6229 23.1427 24.532 21.1964C25.0885 20.6252 26.1381 19.6732 26.9411 19.4686C26.9834 19.4545 27.0116 19.4545 27.0257 19.4545C27.0679 19.4545 27.0961 19.4686 27.0961 19.511C27.0961 19.5674 27.0539 19.6732 27.0257 19.786C26.9059 20.2373 26.5467 21.1047 26.1169 21.3797C25.4336 21.7182 24.9335 22.099 24.2502 22.7972C23.8698 23.178 23.5176 23.6011 23.271 24.0807C23.1865 24.2429 23.1513 24.3909 23.1513 24.5179C23.1513 24.7224 23.271 24.8564 23.4612 24.8564C23.595 24.8564 23.75 24.8 23.9402 24.666C25.3139 23.6857 25.7929 22.8959 26.7721 21.5984C27.6244 21.1259 30.4493 20.5617 30.9987 20.5053C30.6535 21.0765 30.3859 21.7323 30.2943 22.2824C30.2802 22.3529 30.2802 22.4446 30.2802 22.5292C30.2802 22.6914 30.2943 22.8677 30.3365 23.0299C30.3788 23.2626 30.6254 23.4953 30.8508 23.4953H30.8649C31.0128 23.4953 31.1537 23.4248 31.2735 23.3331C32.0906 22.7901 32.4992 21.9439 32.9078 21.0695C33.1402 21.2034 33.5065 21.2458 33.8869 21.2458C33.9926 21.2458 34.0912 21.2316 34.1969 21.2316C35.1972 21.1752 36.3313 20.8085 36.8315 20.5617C37.226 20.6816 37.7191 20.738 37.7191 21.0412C37.7191 21.0695 37.705 21.0977 37.705 21.1259C37.543 21.7253 36.1975 23.3755 36.1975 24.6237C36.1975 24.7859 36.2116 24.934 36.2538 25.0609C36.3595 25.3853 36.5286 25.6462 37.0146 25.7308C37.071 25.7449 37.1344 25.7449 37.2048 25.7449C39.0153 25.7449 42.5445 21.7888 44.362 20.597C44.2986 20.7451 44.2352 20.8932 44.1788 21.0342C43.5659 22.4799 42.9249 24.1653 42.3825 25.6392C42.3402 25.7731 42.2979 25.9142 42.2979 26.0623V26.0905C42.2979 26.161 42.3543 26.2386 42.4036 26.3091C42.46 26.2527 42.5797 26.2245 42.6079 26.1469C42.6783 25.9847 42.6924 25.7943 42.7699 25.618C43.1785 24.666 43.4884 23.9396 43.9111 23.0299C43.9675 22.9241 44.1436 22.5927 44.6296 22.5786C51.4205 22.1132 55.4851 20.7098 60.9445 20.0187C63.0789 19.7437 65.3684 19.4757 68.1157 19.4757C69.6655 19.4757 71.3702 19.5603 73.2581 19.786C74.0612 19.8706 75.2305 20.1668 75.8011 20.7944C75.9632 20.9707 76.1111 21.0412 76.2379 21.0412C76.4422 21.0412 76.5901 20.8508 76.5901 20.6604C76.5901 20.6181 76.576 20.5476 76.5478 20.4841ZM25.652 22.4587C25.2294 23.0581 24.5249 23.587 24.1163 23.9678C24.06 23.996 24.0107 24.0101 23.9825 24.0101C23.9543 24.0101 23.9402 23.9819 23.9402 23.9678C23.9402 23.9255 23.9684 23.862 23.9966 23.8197C24.3347 23.3402 24.9335 22.7408 25.5604 22.3247C25.6168 22.2965 25.6661 22.2824 25.6943 22.2824C25.7225 22.2824 25.7365 22.2965 25.7365 22.3106C25.7365 22.36 25.7084 22.4023 25.652 22.4587ZM31.0551 23.1004C30.9353 23.1709 30.8649 23.2203 30.8085 23.2203C30.7029 23.2203 30.6747 23.1145 30.6747 22.9876C30.6747 22.9312 30.6747 22.8395 30.6888 22.769C30.8085 22.0074 31.5834 20.9143 32.1822 20.2373C32.3019 20.5476 32.3865 20.7027 32.5908 20.8932C32.3724 21.556 31.5693 22.7267 31.0551 23.1004ZM32.7035 20.5899C32.5978 20.4841 32.471 20.2796 32.471 20.0892V20.0328C32.4851 19.8988 32.6048 19.8424 32.7035 19.8424C32.7598 19.8424 32.8373 19.8706 32.8655 19.927C32.8655 20.1315 32.781 20.3572 32.7035 20.5899Z" fill="black"/>
<path d="M24.694 34.2285C23.5317 34.8984 22.8977 36.1678 23.1231 37.4442C17.3748 38.7276 11.1335 37.1268 6.63917 32.6277C-0.348879 25.6321 -0.348879 14.3912 6.63917 7.39559C11.1335 2.89641 17.3819 1.30266 23.1231 2.58612C22.8836 3.88369 23.4823 5.20947 24.6447 5.88646L28.2162 7.95269C28.5191 8.12899 28.9065 8.02322 29.0756 7.71998C29.2517 7.41674 29.146 7.02888 28.8431 6.85963L27.4483 6.05571L25.3843 4.86392C25.0814 4.68762 24.9758 4.30681 25.1519 4.00357C25.328 3.70034 25.7084 3.59456 26.0113 3.77086L28.5684 5.25178L29.4701 5.77363C29.773 5.94993 30.1604 5.84415 30.3295 5.54091C30.5056 5.23767 30.4 4.84981 30.097 4.68056L29.1954 4.15872L26.6382 2.6778C26.3353 2.5015 26.2297 2.12069 26.4058 1.81745C26.5819 1.51421 26.9623 1.40844 27.2652 1.58474L29.3292 2.77652L30.724 3.58045C31.0269 3.75675 31.4143 3.65097 31.5834 3.34774C31.7595 3.0445 31.6539 2.65664 31.3509 2.48739L27.7794 0.421155C26.4833 -0.326357 24.8349 -0.0583808 23.8416 1.06289L23.433 1.76809C23.3908 1.74693 23.3555 1.72578 23.3062 1.71872C17.2692 0.364738 10.6897 2.05017 5.977 6.77501C-1.34918 14.1091 -1.34918 25.9353 5.977 33.2694C10.6897 37.9872 17.2621 39.6797 23.2992 38.3257C23.3415 38.3186 23.3837 38.2975 23.426 38.2763L23.8346 38.9886C24.8278 40.1098 26.4269 40.3002 27.7231 39.5527C29.6603 38.4315 31.4425 36.4781 30.3154 34.5176C29.2165 32.543 26.6241 33.1072 24.694 34.2285Z" fill="black"/>
</svg>
