<svg width="261" height="40" viewBox="0 0 261 40" fill="none" xmlns="http://www.w3.org/2000/svg">
<mask id="mask0_106_184" style="mask-type:luminance" maskUnits="userSpaceOnUse" x="46" y="33" width="3" height="7">
<path d="M46.5986 33.0942H48.4897V40H46.5986V33.0942Z" fill="white"/>
</mask>
<g mask="url(#mask0_106_184)">
<path d="M46.8904 39.8843H48.3826V33.1017H46.8904V39.8843Z" fill="#808284"/>
</g>
<mask id="mask1_106_184" style="mask-type:luminance" maskUnits="userSpaceOnUse" x="51" y="33" width="8" height="7">
<path d="M51.9567 33.0942H58.2603V40H51.9567V33.0942Z" fill="white"/>
</mask>
<g mask="url(#mask1_106_184)">
<path d="M52.0145 33.1017H53.391L56.5687 37.2779V33.1017H58.0412V39.8843H56.7718L53.487 35.5727V39.8843H52.0145" fill="#808284"/>
</g>
<mask id="mask2_106_184" style="mask-type:luminance" maskUnits="userSpaceOnUse" x="61" y="33" width="6" height="7">
<path d="M61.097 33.0942H66.7703V40H61.097V33.0942Z" fill="white"/>
</mask>
<g mask="url(#mask2_106_184)">
<path d="M63.1851 34.4782H61.1216V33.1017H66.7407V34.4782H64.6773V39.8843H63.1851" fill="#808284"/>
</g>
<mask id="mask3_106_184" style="mask-type:luminance" maskUnits="userSpaceOnUse" x="69" y="33" width="7" height="7">
<path d="M69.607 33.0942H75.2803V40H69.607V33.0942Z" fill="white"/>
</mask>
<g mask="url(#mask3_106_184)">
<path d="M69.8212 33.1017H74.9355V34.4289H71.3035V35.8054H74.4997V37.1326H71.3035V38.5571H74.9848V39.8843H69.8212" fill="#808284"/>
</g>
<mask id="mask4_106_184" style="mask-type:luminance" maskUnits="userSpaceOnUse" x="78" y="33" width="7" height="7">
<path d="M78.1169 33.0942H84.4206V40H78.1169V33.0942Z" fill="white"/>
</mask>
<g mask="url(#mask4_106_184)">
<path d="M81.2527 36.3963C81.9791 36.3963 82.3953 36.0085 82.3953 35.4372V35.4175C82.3953 34.7786 81.9496 34.4486 81.2232 34.4486H79.7408V36.3963H81.2527ZM78.2499 33.1017H81.35C82.2118 33.1017 82.8804 33.3442 83.3261 33.7899C83.7028 34.1679 83.9072 34.701 83.9072 35.34V35.3597C83.9072 36.4542 83.3162 37.1424 82.4544 37.4613L84.1103 39.8843H82.367L80.9129 37.7137H79.7408V39.8843H78.2499" fill="#808284"/>
</g>
<mask id="mask5_106_184" style="mask-type:luminance" maskUnits="userSpaceOnUse" x="86" y="33" width="8" height="7">
<path d="M86.942 33.0942H93.2457V40H86.942V33.0942Z" fill="white"/>
</mask>
<g mask="url(#mask5_106_184)">
<path d="M87.1908 33.1017H88.5672L91.7449 37.2779V33.1017H93.2174V39.8843H91.9481L88.6633 35.5727V39.8843H87.1908" fill="#808284"/>
</g>
<mask id="mask6_106_184" style="mask-type:luminance" maskUnits="userSpaceOnUse" x="96" y="32" width="8" height="8">
<path d="M96.0824 32.7791H103.647V40H96.0824V32.7791Z" fill="white"/>
</mask>
<g mask="url(#mask6_106_184)">
<path d="M100.676 37.0451L99.776 34.8462L98.8748 37.0451H100.676ZM99.1075 33.0536H100.483L103.39 39.8842H101.83L101.209 38.3625H98.3417L97.7211 39.8842H96.2006" fill="#808284"/>
</g>
<mask id="mask7_106_184" style="mask-type:luminance" maskUnits="userSpaceOnUse" x="104" y="33" width="7" height="7">
<path d="M104.908 33.0942H110.896V40H104.908V33.0942Z" fill="white"/>
</mask>
<g mask="url(#mask7_106_184)">
<path d="M107.081 34.4782H105.017V33.1017H110.636V34.4782H108.573V39.8843H107.081" fill="#808284"/>
</g>
<mask id="mask8_106_184" style="mask-type:luminance" maskUnits="userSpaceOnUse" x="113" y="33" width="3" height="7">
<path d="M113.733 33.0942H115.309V40H113.733V33.0942Z" fill="white"/>
</mask>
<g mask="url(#mask8_106_184)">
<path d="M113.784 39.8843H115.275V33.1017H113.784V39.8843Z" fill="#808284"/>
</g>
<mask id="mask9_106_184" style="mask-type:luminance" maskUnits="userSpaceOnUse" x="118" y="32" width="9" height="8">
<path d="M118.46 32.7791H126.025V40H118.46V32.7791Z" fill="white"/>
</mask>
<g mask="url(#mask9_106_184)">
<path d="M124.257 36.512V36.4935C124.257 35.33 123.404 34.3623 122.202 34.3623C121.002 34.3623 120.169 35.3116 120.169 36.4738V36.4935C120.169 37.6557 121.02 38.6234 122.223 38.6234C123.423 38.6234 124.257 37.6754 124.257 36.512ZM118.608 36.512V36.4935C118.608 34.5655 120.13 32.9858 122.223 32.9858C124.315 32.9858 125.817 34.5458 125.817 36.4738V36.4935C125.817 38.4203 124.295 39.9999 122.202 39.9999C120.11 39.9999 118.608 38.44 118.608 36.512Z" fill="#808284"/>
</g>
<mask id="mask10_106_184" style="mask-type:luminance" maskUnits="userSpaceOnUse" x="128" y="33" width="8" height="7">
<path d="M128.861 33.0942H135.165V40H128.861V33.0942Z" fill="white"/>
</mask>
<g mask="url(#mask10_106_184)">
<path d="M129.081 33.1017H130.457L133.635 37.2779V33.1017H135.106V39.8843H133.838L130.553 35.5727V39.8843H129.081" fill="#808284"/>
</g>
<mask id="mask11_106_184" style="mask-type:luminance" maskUnits="userSpaceOnUse" x="138" y="32" width="8" height="8">
<path d="M138.002 32.7791H145.566V40H138.002V32.7791Z" fill="white"/>
</mask>
<g mask="url(#mask11_106_184)">
<path d="M142.566 37.0451L141.666 34.8462L140.765 37.0451H142.566ZM140.997 33.0536H142.373L145.279 39.8842H143.719L143.099 38.3625H140.231L139.611 39.8842H138.09" fill="#808284"/>
</g>
<mask id="mask12_106_184" style="mask-type:luminance" maskUnits="userSpaceOnUse" x="148" y="33" width="6" height="7">
<path d="M148.088 33.0942H153.446V40H148.088V33.0942Z" fill="white"/>
</mask>
<g mask="url(#mask12_106_184)">
<path d="M148.263 33.1017H149.755V38.5275H153.136V39.8843H148.263" fill="#808284"/>
</g>
<mask id="mask13_106_184" style="mask-type:luminance" maskUnits="userSpaceOnUse" x="182" y="32" width="7" height="8">
<path d="M182.443 32.7791H188.116V40H182.443V32.7791Z" fill="white"/>
</mask>
<g mask="url(#mask13_106_184)">
<path d="M182.488 38.8956L183.371 37.8393C183.98 38.3428 184.621 38.6629 185.395 38.6629C186.006 38.6629 186.374 38.4204 186.374 38.0239V38.0042C186.374 37.6263 186.141 37.433 185.007 37.1424C183.642 36.794 182.76 36.416 182.76 35.0691V35.0494C182.76 33.8194 183.748 33.0056 185.134 33.0056C186.121 33.0056 186.965 33.3159 187.652 33.8674L186.877 34.9915C186.277 34.5741 185.686 34.323 185.114 34.323C184.543 34.323 184.243 34.584 184.243 34.914V34.9337C184.243 35.3793 184.533 35.5246 185.705 35.825C187.081 36.1833 187.856 36.677 187.856 37.859V37.8786C187.856 39.2256 186.828 39.9803 185.367 39.9803C184.339 39.9803 183.302 39.622 182.488 38.8956Z" fill="#808284"/>
</g>
<mask id="mask14_106_184" style="mask-type:luminance" maskUnits="userSpaceOnUse" x="190" y="32" width="8" height="8">
<path d="M190.637 32.7791H197.256V40H190.637V32.7791Z" fill="white"/>
</mask>
<g mask="url(#mask14_106_184)">
<path d="M190.791 36.512V36.4935C190.791 34.5655 192.244 32.9858 194.327 32.9858C195.605 32.9858 196.371 33.4118 197.001 34.0323L196.051 35.1269C195.529 34.6529 194.996 34.3623 194.318 34.3623C193.175 34.3623 192.351 35.3116 192.351 36.4738V36.4935C192.351 37.6557 193.155 38.6234 194.318 38.6234C195.093 38.6234 195.567 38.3144 196.1 37.8293L197.05 38.7884C196.353 39.5345 195.577 39.9999 194.269 39.9999C192.274 39.9999 190.791 38.4597 190.791 36.512Z" fill="#808284"/>
</g>
<mask id="mask15_106_184" style="mask-type:luminance" maskUnits="userSpaceOnUse" x="200" y="33" width="7" height="7">
<path d="M200.093 33.0942H206.081V40H200.093V33.0942Z" fill="white"/>
</mask>
<g mask="url(#mask15_106_184)">
<path d="M200.178 33.1017H201.67V35.7857H204.422V33.1017H205.914V39.8843H204.422V37.1609H201.67V39.8843H200.178" fill="#808284"/>
</g>
<mask id="mask16_106_184" style="mask-type:luminance" maskUnits="userSpaceOnUse" x="208" y="32" width="9" height="8">
<path d="M208.918 32.7791H216.483V40H208.918V32.7791Z" fill="white"/>
</mask>
<g mask="url(#mask16_106_184)">
<path d="M214.827 36.512V36.4935C214.827 35.33 213.973 34.3623 212.772 34.3623C211.571 34.3623 210.738 35.3116 210.738 36.4738V36.4935C210.738 37.6557 211.59 38.6234 212.791 38.6234C213.993 38.6234 214.827 37.6754 214.827 36.512ZM209.178 36.512V36.4935C209.178 34.5655 210.7 32.9858 212.791 32.9858C214.884 32.9858 216.386 34.5458 216.386 36.4738V36.4935C216.386 38.4203 214.865 39.9999 212.772 39.9999C210.68 39.9999 209.178 38.44 209.178 36.512Z" fill="#808284"/>
</g>
<mask id="mask17_106_184" style="mask-type:luminance" maskUnits="userSpaceOnUse" x="219" y="32" width="8" height="8">
<path d="M219.319 32.7791H226.568V40H219.319V32.7791Z" fill="white"/>
</mask>
<g mask="url(#mask17_106_184)">
<path d="M224.999 36.512V36.4935C224.999 35.33 224.147 34.3623 222.945 34.3623C221.743 34.3623 220.911 35.3116 220.911 36.4738V36.4935C220.911 37.6557 221.763 38.6234 222.965 38.6234C224.165 38.6234 224.999 37.6754 224.999 36.512ZM219.351 36.512V36.4935C219.351 34.5655 220.872 32.9858 222.965 32.9858C225.056 32.9858 226.559 34.5458 226.559 36.4738V36.4935C226.559 38.4203 225.037 39.9999 222.945 39.9999C220.852 39.9999 219.351 38.44 219.351 36.512Z" fill="#808284"/>
</g>
<mask id="mask18_106_184" style="mask-type:luminance" maskUnits="userSpaceOnUse" x="229" y="33" width="6" height="7">
<path d="M229.72 33.0942H234.763V40H229.72V33.0942Z" fill="white"/>
</mask>
<g mask="url(#mask18_106_184)">
<path d="M229.824 33.1017H231.315V38.5275H234.697V39.8843H229.824" fill="#808284"/>
</g>
<mask id="mask19_106_184" style="mask-type:luminance" maskUnits="userSpaceOnUse" x="0" y="0" width="261" height="39">
<path d="M0.266571 0H260.006V38.7676H0.266571V0Z" fill="white"/>
</mask>
<g mask="url(#mask19_106_184)">
<path d="M33.3128 26.6183C32.4325 26.6183 31.567 26.4767 30.7224 26.1886C29.8766 25.9054 29.1256 25.4597 28.4706 24.8515C27.8144 24.2433 27.2911 23.4812 26.8984 22.5652C26.5068 21.6443 26.3098 20.5448 26.3098 19.257V1.24966C26.3098 0.844604 26.1646 0.535577 25.8814 0.320119C25.5958 0.107124 25.2473 -0.0012207 24.8447 -0.0012207C24.4397 -0.0012207 24.0937 0.107124 23.8081 0.320119C23.5224 0.535577 23.3796 0.844604 23.3796 1.24966V19.257C23.3796 20.9979 23.6702 22.5098 24.255 23.7964C24.8373 25.0805 25.5958 26.1541 26.5228 27.0098C27.4524 27.8704 28.5137 28.5032 29.703 28.923C30.8936 29.3416 32.0989 29.5497 33.3128 29.5497C33.7179 29.5497 34.0343 29.4007 34.2596 29.1028C34.4862 28.8048 34.5982 28.465 34.5982 28.0821C34.5982 27.7042 34.4862 27.3631 34.2596 27.0652C34.0343 26.7685 33.7179 26.6183 33.3128 26.6183ZM256.883 17.8288C256.822 17.947 256.721 18.0184 256.577 18.043L243.571 20.1164C243.287 20.1631 243.12 20.0302 243.072 19.7224V19.2201C243.072 17.9618 243.268 16.8648 243.661 15.934C244.055 15.0057 244.577 14.2461 245.233 13.6465C245.888 13.0543 246.632 12.6123 247.467 12.3254C248.3 12.0398 249.169 11.897 250.075 11.897C250.838 11.897 251.593 12.0028 252.343 12.2195C253.094 12.4313 253.779 12.7736 254.398 13.239C255.017 13.7031 255.547 14.2855 255.988 14.9897C256.428 15.6902 256.745 16.5188 256.936 17.4718C256.958 17.5887 256.942 17.7106 256.883 17.8288ZM259.133 14.6684C258.548 13.3929 257.789 12.3316 256.846 11.4845C255.904 10.6399 254.844 10.0108 253.667 9.59218C252.489 9.17604 251.289 8.96428 250.075 8.96428C248.859 8.96428 247.657 9.17604 246.467 9.59218C245.275 10.0108 244.21 10.6399 243.268 11.4845C242.329 12.3316 241.57 13.4002 240.998 14.6844C240.428 15.9697 240.142 17.4841 240.142 19.2201C240.142 20.961 240.433 22.4728 241.018 23.7594C241.6 25.046 242.356 26.1172 243.287 26.9778C244.216 27.8347 245.275 28.4712 246.467 28.8886C247.657 29.3059 248.859 29.514 250.075 29.514C251.601 29.514 253.028 29.2148 254.361 28.6214C254.769 28.4293 255.01 28.1548 255.096 27.7977C255.179 27.4419 255.136 27.096 254.968 26.7623C254.828 26.4274 254.66 26.1947 254.47 26.0655C254.279 25.9337 254.093 25.8512 253.915 25.8131C253.736 25.7798 253.581 25.786 253.451 25.8328C253.321 25.8795 253.231 25.9177 253.183 25.9411C252.207 26.3683 251.17 26.5825 250.075 26.5825C248.812 26.5825 247.622 26.2957 246.503 25.7244C245.382 25.1531 244.513 24.2605 243.891 23.0454L258.758 20.6889C259.138 20.6175 259.442 20.4389 259.668 20.1496C259.897 19.8664 260.006 19.5439 260.006 19.1868C260.006 17.4471 259.714 15.9389 259.133 14.6684ZM237.782 26.6158C236.9 26.6158 236.039 26.4742 235.192 26.1886C234.346 25.9029 233.594 25.456 232.941 24.849C232.286 24.2396 231.76 23.4812 231.369 22.5627C230.975 21.6443 230.779 20.5448 230.779 19.2545V1.24474C230.779 0.843373 230.636 0.531883 230.349 0.318888C230.064 0.10343 229.718 -0.0012207 229.315 -0.0012207C228.91 -0.0012207 228.563 0.10343 228.278 0.318888C227.992 0.531883 227.848 0.843373 227.848 1.24474V19.2545C227.848 20.9954 228.142 22.5086 228.724 23.7964C229.309 25.0793 230.064 26.1529 230.993 27.0098C231.923 27.8691 232.982 28.5057 234.173 28.9218C235.364 29.3392 236.568 29.5472 237.782 29.5472C238.187 29.5472 238.503 29.397 238.73 29.1016C238.955 28.8036 239.069 28.4638 239.069 28.0821C239.069 27.7017 238.955 27.3607 238.73 27.0652C238.503 26.766 238.187 26.6158 237.782 26.6158ZM220.526 22.527C220.134 23.4443 219.61 24.2076 218.955 24.8121C218.3 25.4228 217.549 25.866 216.703 26.1529C215.857 26.4385 214.994 26.5813 214.111 26.5813C213.231 26.5813 212.368 26.4385 211.523 26.1529C210.676 25.866 209.925 25.4228 209.269 24.8121C208.618 24.2076 208.093 23.4443 207.698 22.527C207.305 21.6086 207.109 20.5066 207.109 19.2201C207.109 17.9581 207.305 16.8611 207.698 15.9316C208.093 15.0045 208.618 14.2424 209.269 13.6452C209.925 13.0494 210.67 12.611 211.505 12.323C212.336 12.0398 213.205 11.8957 214.111 11.8957C214.994 11.8957 215.857 12.0398 216.703 12.323C217.549 12.611 218.3 13.0494 218.955 13.6452C219.61 14.2424 220.134 15.0045 220.526 15.9316C220.918 16.8611 221.115 17.9581 221.115 19.2201C221.115 20.5066 220.918 21.6086 220.526 22.527ZM223.58 10.0022C223.27 9.76455 222.914 9.64512 222.509 9.64512C222.247 9.64512 221.997 9.70299 221.758 9.82241C221.522 9.94184 221.342 10.1327 221.224 10.3937C221.152 10.5377 221.049 10.6633 220.918 10.7704C220.788 10.8775 220.639 10.9305 220.473 10.9305C220.307 10.9305 220.139 10.8702 219.973 10.7507C219.116 10.1573 218.179 9.71038 217.168 9.4112C216.156 9.11325 215.136 8.96551 214.111 8.96551C212.897 8.96551 211.696 9.17358 210.503 9.59341C209.312 10.0096 208.253 10.6387 207.322 11.4845C206.394 12.3303 205.638 13.3965 205.053 14.6819C204.471 15.9685 204.179 17.4829 204.179 19.2201C204.179 20.9597 204.471 22.4729 205.053 23.757C205.638 25.0448 206.394 26.1172 207.322 26.9728C208.253 27.8334 209.312 28.4675 210.503 28.8873C211.696 29.3022 212.897 29.5128 214.111 29.5128C215.136 29.5128 216.156 29.365 217.168 29.0659C218.179 28.7654 219.116 28.321 219.973 27.7251C220.139 27.6057 220.307 27.5441 220.473 27.5441C220.805 27.5441 221.055 27.714 221.224 28.0452C221.342 28.3074 221.522 28.5057 221.758 28.6349C221.997 28.7654 222.247 28.8319 222.509 28.8319C222.914 28.8319 223.27 28.715 223.58 28.4737C223.889 28.2385 224.044 27.8901 224.044 27.4407V11.0376C224.044 10.587 223.889 10.2398 223.58 10.0022ZM197.195 22.5787C196.801 23.5083 196.278 24.2728 195.621 24.8663C194.968 25.4622 194.217 25.9029 193.372 26.1886C192.525 26.4742 191.663 26.6158 190.779 26.6158C189.899 26.6158 189.036 26.4742 188.19 26.1886C187.345 25.9029 186.593 25.4622 185.938 24.8663C185.284 24.2728 184.76 23.5083 184.367 22.5787C183.974 21.6504 183.776 20.5547 183.776 19.2915C183.776 18.0061 183.974 16.9042 184.367 15.9882C184.76 15.0697 185.284 14.3064 185.938 13.7019C186.593 13.0924 187.345 12.6443 188.19 12.3611C189.036 12.073 189.899 11.9314 190.779 11.9314C191.663 11.9314 192.525 12.073 193.372 12.3611C194.217 12.6443 194.968 13.0924 195.621 13.7019C196.278 14.3064 196.801 15.0697 197.195 15.9882C197.589 16.9042 197.783 18.0061 197.783 19.2915C197.783 20.5547 197.589 21.6504 197.195 22.5787ZM200.268 0.281952C199.969 0.0935806 199.631 -0.0012207 199.248 -0.0012207C198.868 -0.0012207 198.529 0.0935806 198.23 0.281952C197.933 0.475248 197.783 0.770733 197.783 1.17579V10.3235C197.783 10.5156 197.724 10.6682 197.605 10.7877C197.487 10.9059 197.319 10.9674 197.105 10.9674C196.962 10.9674 196.808 10.9059 196.641 10.7877C195.784 10.193 194.854 9.74485 193.853 9.44936C192.852 9.15142 191.828 9.00244 190.779 9.00244C189.565 9.00244 188.362 9.20928 187.169 9.62542C185.979 10.0428 184.921 10.6805 183.993 11.5387C183.063 12.3968 182.305 13.468 181.724 14.7545C181.139 16.0411 180.848 17.553 180.848 19.2915C180.848 21.0311 181.133 22.5443 181.704 23.8296C182.276 25.1162 183.034 26.1812 183.974 27.027C184.915 27.8741 185.979 28.5044 187.169 28.9218C188.362 29.3392 189.565 29.5472 190.779 29.5472C191.828 29.5472 192.852 29.4044 193.853 29.1188C194.854 28.8319 195.784 28.3788 196.641 27.7583C196.808 27.6414 196.987 27.5835 197.176 27.5835C197.344 27.5835 197.491 27.6475 197.624 27.7805C197.756 27.9085 197.867 28.0452 197.962 28.1892C198.201 28.6423 198.63 28.8676 199.248 28.8676C199.653 28.8676 199.999 28.7433 200.285 28.4958C200.572 28.241 200.713 27.9147 200.713 27.5109V1.17579C200.713 0.770733 200.566 0.475248 200.268 0.281952ZM174.148 22.4913C173.755 23.4098 173.232 24.1719 172.576 24.7789C171.921 25.3846 171.171 25.834 170.324 26.1196C169.48 26.404 168.615 26.5481 167.734 26.5481C166.852 26.5481 165.989 26.404 165.143 26.1196C164.297 25.834 163.548 25.3846 162.891 24.7789C162.236 24.1719 161.714 23.4098 161.32 22.4913C160.928 21.5741 160.732 20.4746 160.732 19.1856C160.732 17.9236 160.928 16.8279 161.32 15.8983C161.714 14.9688 162.236 14.2091 162.891 13.6108C163.548 13.0173 164.291 12.5766 165.126 12.2897C165.958 12.0041 166.83 11.8625 167.734 11.8625C168.615 11.8625 169.48 12.0041 170.324 12.2897C171.171 12.5766 171.921 13.0173 172.576 13.6108C173.232 14.2091 173.755 14.9688 174.148 15.8983C174.542 16.8279 174.738 17.9236 174.738 19.1856C174.738 20.4746 174.542 21.5741 174.148 22.4913ZM177.204 9.94923C176.892 9.72515 176.56 9.61065 176.203 9.61065C175.796 9.61065 175.494 9.69437 175.292 9.85812C175.088 10.0268 174.94 10.2053 174.843 10.3961C174.772 10.539 174.66 10.6572 174.504 10.7532C174.351 10.8505 174.213 10.896 174.096 10.896C173.929 10.896 173.759 10.8381 173.593 10.7187C172.736 10.1228 171.802 9.6759 170.791 9.37672C169.777 9.07878 168.759 8.93227 167.734 8.93227C166.519 8.93227 165.317 9.14157 164.125 9.55648C162.935 9.97262 161.87 10.6054 160.928 11.4488C159.986 12.2959 159.23 13.3621 158.657 14.6487C158.087 15.9353 157.8 17.4471 157.8 19.1856C157.8 20.9252 158.094 22.4384 158.676 23.7237C159.261 25.0103 160.015 26.0839 160.945 26.9396C161.873 27.799 162.935 28.4355 164.125 28.8529C165.317 29.2702 166.519 29.4771 167.734 29.4771C168.759 29.4771 169.777 29.3355 170.791 29.0498C171.802 28.7642 172.736 28.3087 173.593 27.6906C173.688 27.6204 173.856 27.5601 174.096 27.5121C174.286 27.5121 174.44 27.5712 174.559 27.6906C174.679 27.8076 174.738 27.9652 174.738 28.1548V28.6546C174.69 29.8464 174.458 30.8769 174.041 31.7474C173.622 32.6166 173.093 33.3307 172.45 33.8909C171.808 34.4498 171.073 34.8672 170.251 35.1418C169.432 35.4163 168.592 35.5505 167.734 35.5505C166.639 35.5505 165.615 35.3363 164.662 34.9103C164.589 34.8857 164.481 34.8549 164.339 34.8192C164.195 34.7847 164.041 34.7847 163.874 34.8192C163.709 34.8549 163.535 34.9485 163.357 35.1036C163.178 35.2599 163.018 35.4939 162.874 35.8029C162.682 36.1846 162.649 36.5342 162.767 36.858C162.885 37.1769 163.114 37.4231 163.444 37.5894C164.78 38.1828 166.209 38.4832 167.734 38.4832C168.946 38.4832 170.153 38.2727 171.342 37.8578C172.534 37.4404 173.593 36.81 174.522 35.963C175.453 35.1159 176.209 34.0522 176.79 32.7668C177.375 31.4802 177.667 29.9658 177.667 28.2274V11.0745C177.667 10.5525 177.512 10.1745 177.204 9.94923ZM151.494 11.8994C150.554 11.0561 149.49 10.422 148.296 10.0059C147.106 9.58849 145.901 9.38165 144.686 9.38165C143.639 9.38165 142.615 9.53062 141.614 9.82857C140.613 10.1253 139.684 10.571 138.828 11.1669C138.662 11.2851 138.483 11.3454 138.29 11.3454C137.981 11.3454 137.741 11.1804 137.577 10.8455C137.338 10.3223 136.885 10.0576 136.219 10.0576C135.839 10.0576 135.5 10.1967 135.2 10.4712C134.902 10.7446 134.754 11.0942 134.754 11.5239V27.996C134.754 28.4022 134.902 28.7113 135.2 28.9267C135.5 29.1397 135.839 29.2493 136.219 29.2493C136.598 29.2493 136.939 29.1397 137.238 28.9267C137.534 28.7113 137.684 28.4022 137.684 27.996V19.5993C137.684 18.3373 137.886 17.2477 138.29 16.3329C138.695 15.4145 139.226 14.6573 139.883 14.0614C140.538 13.4655 141.282 13.0247 142.115 12.7379C142.946 12.4535 143.807 12.3094 144.686 12.3094C145.567 12.3094 146.434 12.4535 147.279 12.7379C148.123 13.0247 148.874 13.4729 149.529 14.0786C150.186 14.6868 150.708 15.4489 151.1 16.3662C151.494 17.2846 151.69 18.3841 151.69 19.6707V27.996C151.69 28.4022 151.84 28.7113 152.137 28.9267C152.435 29.1397 152.774 29.2493 153.156 29.2493C153.537 29.2493 153.877 29.1397 154.173 28.9267C154.47 28.7113 154.619 28.4022 154.619 27.996V19.6362C154.619 17.8965 154.335 16.3834 153.763 15.098C153.19 13.8102 152.435 12.744 151.494 11.8994ZM125.781 6.66565C126.28 6.66565 126.651 6.52407 126.887 6.23597C127.124 5.95156 127.245 5.63022 127.245 5.26949C127.245 4.91367 127.124 4.59357 126.887 4.30547C126.651 4.0223 126.28 3.87825 125.781 3.87825C125.279 3.87825 124.912 4.0223 124.673 4.30547C124.434 4.59357 124.316 4.91367 124.316 5.26949C124.316 5.63022 124.434 5.95156 124.673 6.23597C124.912 6.52407 125.279 6.66565 125.781 6.66565ZM130.711 26.9962C129.686 26.3068 128.858 25.4055 128.229 24.2999C127.596 23.1906 127.283 22.0296 127.283 20.8157V11.3097C127.283 10.9071 127.132 10.5882 126.834 10.3629C126.536 10.1388 126.195 10.0243 125.816 10.0243C125.436 10.0243 125.097 10.1388 124.797 10.3629C124.499 10.5882 124.352 10.9071 124.352 11.3097V20.9942C124.376 21.9471 124.536 22.8816 124.837 23.8001C125.131 24.7161 125.53 25.5681 126.031 26.3535C126.221 26.638 126.466 26.9679 126.765 27.3336C127.059 27.7054 127.383 28.0624 127.729 28.4072C128.075 28.7531 128.424 29.0412 128.781 29.2653C129.14 29.4906 129.462 29.6076 129.747 29.6076C130.152 29.6076 130.522 29.4623 130.855 29.1767C131.187 28.8923 131.353 28.534 131.353 28.1043C131.353 27.6783 131.139 27.3065 130.711 26.9962ZM117.062 11.8994C116.132 11.0561 115.073 10.422 113.883 10.0059C112.691 9.58849 111.488 9.38165 110.274 9.38165C108.629 9.38165 107.039 9.74977 105.506 10.4885C103.968 11.2272 102.733 12.371 101.805 13.9198C100.873 12.371 99.6417 11.2272 98.1077 10.4885C96.5712 9.74977 94.9792 9.38165 93.3356 9.38165C92.2891 9.38165 91.2635 9.52323 90.2626 9.8101C89.2628 10.0957 88.3345 10.5476 87.4764 11.1669C87.3102 11.2851 87.1304 11.3454 86.9421 11.3454C86.7512 11.3454 86.585 11.2691 86.441 11.1139C86.2969 10.96 86.1898 10.8098 86.1184 10.6658C86.0002 10.4294 85.8291 10.2681 85.6001 10.1844C85.3748 10.1007 85.1297 10.0588 84.8663 10.0588C84.4169 10.0588 84.0586 10.1967 83.7976 10.4712C83.5341 10.7446 83.4036 11.0228 83.4036 11.3097V27.996C83.4036 28.4022 83.5514 28.7113 83.8481 28.9267C84.1485 29.141 84.4858 29.2493 84.8663 29.2493C85.2467 29.2493 85.589 29.141 85.8869 28.9267C86.1836 28.7113 86.3326 28.4022 86.3326 27.996V19.5993C86.3326 18.3373 86.5358 17.2477 86.9421 16.3329C87.3447 15.4145 87.8778 14.6573 88.5303 14.0614C89.1853 13.4667 89.9301 13.0247 90.7637 12.7379C91.5984 12.4535 92.4553 12.3106 93.3356 12.3106C94.2196 12.3106 95.0802 12.4535 95.9272 12.7379C96.7731 13.0247 97.5241 13.4729 98.1779 14.0786C98.8353 14.6868 99.3573 15.4489 99.7489 16.3662C100.144 17.2846 100.342 18.3841 100.342 19.6707V27.996C100.342 28.4022 100.49 28.7113 100.784 28.9267C101.085 29.141 101.424 29.2493 101.805 29.2493C102.188 29.2493 102.525 29.141 102.824 28.9267C103.122 28.7113 103.27 28.4022 103.27 27.996V19.6362C103.27 18.3718 103.467 17.2772 103.86 16.3477C104.254 15.4194 104.777 14.6573 105.432 14.0614C106.088 13.4667 106.833 13.0247 107.663 12.7379C108.498 12.4535 109.368 12.3106 110.274 12.3106C111.155 12.3106 112.018 12.4535 112.863 12.7379C113.709 13.0247 114.46 13.4667 115.115 14.0614C115.772 14.6573 116.295 15.4194 116.685 16.3477C117.08 17.2772 117.277 18.3718 117.277 19.6362V27.996C117.277 28.4022 117.425 28.7113 117.724 28.9267C118.021 29.141 118.359 29.2493 118.741 29.2493C119.124 29.2493 119.463 29.141 119.761 28.9267C120.058 28.7113 120.206 28.4022 120.206 27.996V19.6707C120.206 17.9322 119.917 16.4142 119.332 15.1153C118.747 13.8164 117.991 12.744 117.062 11.8994ZM16.6106 22.5824C16.2178 23.5095 15.6958 24.2741 15.0396 24.8663C14.3858 25.4634 13.6348 25.9054 12.7902 26.1898C11.9444 26.4767 11.0813 26.6183 10.1961 26.6183C9.31702 26.6183 8.45273 26.4767 7.60813 26.1898C6.76108 25.9054 6.01375 25.4634 5.35752 24.8663C4.70253 24.2741 4.17805 23.5095 3.7853 22.5824C3.39255 21.6516 3.19679 20.5547 3.19679 19.2939C3.19679 18.0086 3.39255 16.9042 3.7853 15.9894C4.17805 15.0722 4.70253 14.3076 5.35752 13.7019C6.01375 13.0949 6.76108 12.648 7.60813 12.3636C8.45273 12.0767 9.31702 11.9327 10.1961 11.9327C11.0813 11.9327 11.9444 12.0767 12.7902 12.3636C13.6348 12.648 14.3858 13.0949 15.0396 13.7019C15.6958 14.3076 16.2178 15.0722 16.6106 15.9894C17.007 16.9042 17.2028 18.0086 17.2028 19.2939C17.2028 20.5547 17.007 21.6516 16.6106 22.5824ZM16.9873 11.5375C16.0578 10.6818 15.0002 10.0453 13.8072 9.62912C12.6154 9.21175 11.4125 9.00367 10.1961 9.00367C9.14958 9.00367 8.12523 9.15265 7.12674 9.45059C6.12455 9.74608 5.19501 10.1955 4.33933 10.7889C4.17189 10.9108 4.01676 10.9662 3.87395 10.9662C3.65849 10.9662 3.49228 10.9108 3.37285 10.7889C3.25466 10.6695 3.19679 10.5156 3.19679 10.3247V1.17826C3.19679 0.771964 3.04536 0.475248 2.74987 0.284415C2.44946 0.0935806 2.11089 -0.0012207 1.73045 -0.0012207C1.34878 -0.0012207 1.01021 0.0935806 0.71226 0.284415C0.414313 0.475248 0.266571 0.771964 0.266571 1.17826V27.5121C0.266571 27.9184 0.406926 28.2447 0.693793 28.4946C0.980659 28.747 1.32416 28.8701 1.73045 28.8701C2.34851 28.8701 2.77819 28.6423 3.01704 28.1905C3.11184 28.0477 3.22511 27.9122 3.35685 27.7793C3.48735 27.6488 3.63633 27.5835 3.80254 27.5835C3.99337 27.5835 4.17189 27.6438 4.33933 27.7633C5.19501 28.3813 6.12455 28.8356 7.12674 29.1213C8.12523 29.4044 9.14958 29.5497 10.1961 29.5497C11.4125 29.5497 12.6154 29.3416 13.8072 28.923C15.0002 28.5044 16.0639 27.8753 17.007 27.0307C17.9476 26.1836 18.7023 25.1174 19.2748 23.8333C19.8449 22.5455 20.1318 21.0324 20.1318 19.2939C20.1318 17.553 19.84 16.0424 19.2564 14.7545C18.674 13.4692 17.9156 12.3968 16.9873 11.5375Z" fill="#221E1F"/>
</g>
<path d="M57.3628 16.2393L57.3542 16.2295L56.3101 14.917C55.5111 13.9148 54.7355 13.0826 53.9377 12.3722C51.8754 10.5377 49.5916 9.45425 47.1317 9.1366C46.6232 9.07135 46.1085 9.03564 45.5853 9.03564C44.7542 9.03564 43.9515 9.10952 43.182 9.25603C41.7378 10.7605 40.1902 12.7785 39.2927 15.1743C39.4552 14.949 39.7236 14.5944 39.9612 14.3802C39.9686 14.3741 39.9735 14.3716 39.9797 14.3654C41.2269 13.0813 43.0712 12.2318 45.5853 12.2318C50.0582 12.2318 52.8579 15.4193 55.0063 18.5379L55.2956 18.959L55.484 19.2323L57.3542 16.2529C57.3567 16.2492 57.3628 16.2393 57.3628 16.2393Z" fill="#F6DB04"/>
<path d="M75.1276 23.7656C75.1116 23.7853 75.0956 23.805 75.0796 23.8247L75.0636 23.8444V23.8432C73.8213 25.3329 71.8723 26.3474 69.1243 26.3474C64.6502 26.3474 61.8517 23.1587 59.7033 20.0401L59.4127 19.6202L59.217 19.3346L57.3542 22.3251V22.3498L58.3995 23.661C59.1973 24.6632 59.9729 25.4967 60.772 26.2071C62.833 28.0415 65.1168 29.1238 67.5767 29.4426C68.0852 29.5079 68.6011 29.5436 69.1243 29.5436C69.9554 29.5436 70.7569 29.4685 71.5264 29.3232C72.9718 27.8175 74.5206 25.7983 75.4169 23.4012" fill="#CADB29"/>
<path d="M72.797 9.59957C72.7736 9.59218 72.7502 9.58356 72.7268 9.57618C72.6 9.53678 72.4732 9.5023 72.3451 9.46783C72.137 9.41243 71.929 9.36195 71.7184 9.31886C71.6286 9.30162 71.5387 9.28685 71.4476 9.27084C71.2174 9.23144 70.9871 9.19697 70.7557 9.17235C70.683 9.16496 70.6104 9.16003 70.5377 9.15511C70.2903 9.13418 70.0416 9.12064 69.7941 9.11941C69.7658 9.11817 69.7375 9.11694 69.7104 9.11694C69.4518 9.11694 69.2019 9.13295 68.9483 9.14526C68.8276 9.15019 68.7033 9.15019 68.5838 9.15757C68.446 9.16742 68.3118 9.18466 68.1751 9.19697C67.9436 9.21913 67.7122 9.24376 67.4856 9.277C67.3231 9.30039 67.1618 9.32871 67.0018 9.35702C66.8085 9.3915 66.6176 9.42966 66.4293 9.47152C66.2618 9.50969 66.0944 9.54786 65.9306 9.59218C65.8678 9.60819 65.8075 9.62912 65.7447 9.64635C64.2427 10.0674 62.8662 10.7396 61.6006 11.684L61.6018 11.6827C61.5833 11.6963 61.5661 11.7111 61.5488 11.7246C61.3962 11.8403 61.2435 11.9573 61.0933 12.0816C60.9997 12.158 60.9074 12.2454 60.8138 12.3266C60.7166 12.4104 60.6205 12.4941 60.5282 12.5778C60.4913 12.611 60.4543 12.6406 60.4186 12.6738C60.4014 12.6898 60.3841 12.7083 60.3669 12.7243C58.4327 14.5083 57.3542 16.2529 57.3542 16.2529L55.4853 19.2324L55.0174 19.9772C54.8598 20.2136 54.6998 20.4488 54.5372 20.6839C54.4917 20.7492 54.4449 20.8132 54.3981 20.8785C54.2701 21.0619 54.1383 21.2429 54.0041 21.4226C53.9574 21.4854 53.9118 21.547 53.865 21.6086C53.5067 22.0789 53.1288 22.5344 52.7225 22.9653C52.6782 23.0121 52.6314 23.0589 52.5858 23.1057C52.4171 23.2805 52.2423 23.4492 52.0638 23.6142C52.017 23.656 51.9715 23.6991 51.9247 23.741C51.4753 24.1399 50.9902 24.5055 50.462 24.8281C50.4066 24.8613 50.35 24.8934 50.2946 24.9254C50.0742 25.0546 49.8477 25.1741 49.6113 25.2861C49.5965 25.2935 49.5842 25.3021 49.5682 25.3095C49.5448 25.3206 49.5226 25.3354 49.498 25.3464C46.5739 27.762 43.3925 28.4823 40.8009 28.55C41.1604 28.7137 41.531 28.8578 41.9114 28.9784C41.9361 28.9858 41.9594 28.9957 41.9828 29.0031C42.1084 29.0412 42.2365 29.0769 42.3645 29.1114C42.5713 29.1656 42.7807 29.2173 42.99 29.2591C43.0798 29.2776 43.1709 29.2924 43.262 29.3072C43.491 29.3478 43.7213 29.3823 43.954 29.4057C44.0254 29.4143 44.098 29.418 44.1707 29.4241C44.4194 29.4438 44.6668 29.4586 44.9155 29.4598C44.9438 29.4598 44.9709 29.4623 44.9992 29.4623C45.2578 29.4611 45.5077 29.4451 45.7601 29.434C45.882 29.4291 46.0064 29.4291 46.1258 29.4204C46.2637 29.4106 46.3979 29.3946 46.5333 29.381C46.766 29.3589 46.9962 29.3342 47.2228 29.3022C47.3865 29.2788 47.5478 29.2505 47.7079 29.2222C47.8999 29.1877 48.0908 29.1496 48.2804 29.1077C48.4478 29.0695 48.614 29.0301 48.779 28.9871C48.8418 28.9698 48.9021 28.9501 48.9649 28.9329C50.6689 28.454 52.2128 27.6537 53.6151 26.4976C53.8429 26.3105 54.0682 26.1122 54.291 25.9042C54.5139 25.6961 54.7355 25.4769 54.9558 25.2455C55.1762 25.0152 55.3942 24.7727 55.6133 24.5178C55.8325 24.263 56.0504 23.9958 56.2695 23.7151L57.0747 22.6846L57.3542 22.3251L59.217 19.3346L59.4164 19.0132L59.691 18.6008C59.8486 18.3656 60.0099 18.1292 60.1724 17.8953C60.2179 17.83 60.2647 17.7648 60.3103 17.6995C60.4396 17.5173 60.5713 17.3363 60.7055 17.1554C60.7523 17.0938 60.7978 17.031 60.8446 16.9694C61.2029 16.4991 61.5809 16.0448 61.9859 15.6139C62.0315 15.5659 62.077 15.5203 62.1238 15.4736C62.2925 15.2987 62.4661 15.1288 62.6458 14.9651C62.6926 14.922 62.7369 14.8789 62.785 14.837C63.2343 14.4381 63.7194 14.0737 64.2464 13.7511C64.3018 13.7167 64.3596 13.6859 64.4151 13.6526C64.6342 13.5246 64.862 13.4039 65.0971 13.2919C65.1119 13.2845 65.1254 13.2771 65.1402 13.2697C65.1648 13.2574 65.187 13.2439 65.2104 13.2328C68.1357 10.816 71.3158 10.097 73.9087 10.028C73.548 9.8655 73.1774 9.72146 72.797 9.59957Z" fill="#A1499B"/>
<path d="M43.0059 25.9731C42.841 25.9264 42.6809 25.871 42.5209 25.8119C42.4975 25.8032 42.4728 25.7971 42.4494 25.7872C42.4371 25.7835 42.4248 25.7774 42.4125 25.7725C42.2561 25.7109 42.1023 25.6444 41.9508 25.573C41.8856 25.5422 41.8203 25.5115 41.7563 25.4782C41.6627 25.4302 41.5704 25.3809 41.478 25.3292C41.4079 25.2898 41.3352 25.2554 41.265 25.2135C41.1961 25.1716 41.1308 25.1273 41.0681 25.0793C39.193 23.8297 37.9556 21.696 37.9556 19.2718C37.9556 17.7402 38.4542 16.328 39.2915 15.1769C40.189 12.7798 41.7378 10.7606 43.182 9.2561C43.1808 9.2561 43.1795 9.2561 43.1771 9.25733C42.8114 9.32628 42.4531 9.41246 42.1023 9.51465C42.0961 9.51588 42.0899 9.51835 42.0838 9.52081C41.9139 9.57006 41.7464 9.623 41.5815 9.67963C41.4239 9.73503 41.2675 9.79413 41.1136 9.85569C41.1001 9.86185 41.0853 9.86677 41.0705 9.8717C40.4094 10.1401 39.7876 10.4701 39.2114 10.8579C38.6352 11.2457 38.1046 11.6926 37.622 12.1949C35.8109 14.0799 34.8038 16.6605 34.7668 19.4713C34.8752 23.5145 37.3191 26.9741 40.8009 28.55C43.3925 28.4823 46.5739 27.7621 49.498 25.3465C49.498 25.3465 49.4081 25.3871 49.3256 25.4228C49.253 25.4548 49.1766 25.4831 49.1028 25.5127C48.9575 25.5718 48.811 25.6284 48.6595 25.6814C48.5734 25.7109 48.486 25.7405 48.3973 25.7688C48.2274 25.8217 48.0538 25.871 47.8753 25.9165C47.8125 25.9325 47.7509 25.9522 47.6869 25.967C47.4468 26.0236 47.1994 26.0716 46.9457 26.1123C46.8706 26.1246 46.7931 26.1332 46.718 26.1443C46.5173 26.1726 46.3129 26.196 46.1036 26.2145C46.0211 26.2218 45.9386 26.2292 45.8537 26.2342C45.5693 26.2539 45.2787 26.2662 44.9771 26.2662C44.5535 26.2662 44.1251 26.2243 43.7016 26.1443C43.6597 26.1369 43.6178 26.1234 43.576 26.1147C43.4873 26.0975 43.4012 26.0729 43.3137 26.0519C43.2103 26.0261 43.1081 26.0027 43.0059 25.9731Z" fill="#F68A1E"/>
<path d="M72.648 9.55026C72.5926 9.53303 72.5372 9.51579 72.4805 9.49978C72.4362 9.48747 72.3894 9.47885 72.3451 9.46777C72.4732 9.50225 72.6 9.53672 72.7268 9.57612C72.6997 9.5675 72.6751 9.55765 72.648 9.55026Z" fill="#5C3F96"/>
<path d="M57.3468 22.3386L57.3542 22.3497V22.3251C57.3517 22.33 57.3468 22.3386 57.3468 22.3386Z" fill="#FEC518"/>
<path d="M71.7037 12.6061C71.8674 12.6528 72.0287 12.7082 72.1875 12.7673C72.2122 12.776 72.2356 12.7821 72.2589 12.7907C72.2713 12.7957 72.2836 12.8018 72.2959 12.8067C72.4535 12.8671 72.6061 12.9348 72.7576 13.0062C72.8228 13.037 72.8881 13.0678 72.9533 13.0998C73.0469 13.1478 73.1392 13.1983 73.2304 13.25C73.3018 13.2894 73.3744 13.3238 73.4433 13.3645C73.5135 13.4063 73.5788 13.4519 73.6403 13.4987C75.5167 14.7496 76.754 16.8832 76.754 19.3074C76.754 20.839 76.2541 22.2512 75.4169 23.4011C74.5206 25.7982 72.9718 27.8174 71.5264 29.3231C71.5289 29.3231 71.5301 29.3219 71.5313 29.3219C71.8982 29.2517 72.2565 29.1667 72.6074 29.0646C72.6135 29.0621 72.6197 29.0609 72.6258 29.0584C72.7945 29.0091 72.962 28.9562 73.1282 28.8983C73.2858 28.8429 73.4409 28.7851 73.596 28.7223C73.6096 28.7174 73.6243 28.7124 73.6379 28.7063C74.3003 28.4379 74.9208 28.1091 75.497 27.7213C76.0732 27.3323 76.605 26.8866 77.0864 26.3843C78.8987 24.4981 79.9046 21.9187 79.9415 19.108C79.8344 15.0635 77.3905 11.6039 73.9087 10.028C71.3159 10.0969 68.1357 10.8159 65.2104 13.2327C65.187 13.2438 65.1649 13.2574 65.1402 13.2697C65.2215 13.2315 65.3015 13.1909 65.384 13.1552C65.4554 13.1244 65.5317 13.0961 65.6068 13.0653C65.7509 13.0062 65.8986 12.9508 66.0501 12.8978C66.135 12.8683 66.2224 12.8388 66.3111 12.8104C66.481 12.7563 66.6558 12.7082 66.8331 12.6627C66.8971 12.6455 66.9587 12.627 67.0227 12.6122C67.2616 12.5556 67.5103 12.5076 67.7639 12.4657C67.839 12.4546 67.9153 12.4448 67.9917 12.4349C68.1911 12.4066 68.3955 12.3832 68.6048 12.3647C68.6885 12.3574 68.771 12.35 68.8559 12.3438C69.1404 12.3253 69.4297 12.3118 69.7313 12.3118C70.1561 12.3118 70.5833 12.3537 71.0081 12.4349C71.0499 12.4423 71.0918 12.4559 71.1336 12.4645C71.2211 12.4817 71.3072 12.5063 71.3947 12.5273C71.4981 12.5519 71.6015 12.5753 71.7037 12.6061Z" fill="#21A9E1"/>
<path d="M75.0796 23.8247C75.0746 23.8309 75.0685 23.837 75.0636 23.8432V23.8444" fill="#16C1EA"/>
</svg>
